<?xml version="1.0" standalone="no"?>
<svg
  width="600"
  height="600"
  viewBox="0 0 600 600"
  xmlns="http://www.w3.org/2000/svg"
>
  <g transform="translate(300,300)">
    <path d="M125.5,-184.8C169.9,-166.8,218.2,-144.2,246.1,-105.8C274,-67.3,281.5,-12.9,271.2,37C261,86.9,232.9,132.2,196.3,164.7C159.7,197.3,114.7,217.2,69,226.8C23.4,236.4,-22.8,235.7,-66.5,224C-110.3,212.4,-151.5,189.7,-172.2,155.1C-192.8,120.6,-192.9,74.2,-188.1,33.9C-183.3,-6.4,-173.5,-40.6,-159.1,-72.8C-144.7,-105.1,-125.6,-135.4,-98.3,-161.3C-71,-187.2,-35.5,-208.6,2.5,-212.5C40.5,-216.4,81.1,-202.9,125.5,-184.8Z" fill="#e92b73" />
  </g>
</svg>
    